<svg width="50" height="45" viewBox="0 0 50 45" fill="none" xmlns="http://www.w3.org/2000/svg">
<path d="M39.5827 23.6112H10.416C10.0016 23.6112 9.60418 23.4649 9.31116 23.2043C9.01814 22.9439 8.85352 22.5906 8.85352 22.2223C8.85352 21.8539 9.01814 21.5006 9.31116 21.2402C9.60418 20.9797 10.0016 20.8334 10.416 20.8334H39.5827C39.9971 20.8334 40.3946 20.9797 40.6875 21.2402C40.9806 21.5006 41.1452 21.8539 41.1452 22.2223C41.1452 22.5906 40.9806 22.9439 40.6875 23.2043C40.3946 23.4649 39.9971 23.6112 39.5827 23.6112Z" fill="black"/>
<path d="M39.5827 15.2778H10.416C10.0016 15.2778 9.60418 15.1314 9.31116 14.871C9.01814 14.6105 8.85352 14.2572 8.85352 13.8889C8.85352 13.5205 9.01814 13.1673 9.31116 12.9068C9.60418 12.6463 10.0016 12.5 10.416 12.5H39.5827C39.9971 12.5 40.3946 12.6463 40.6875 12.9068C40.9806 13.1673 41.1452 13.5205 41.1452 13.8889C41.1452 14.2572 40.9806 14.6105 40.6875 14.871C40.3946 15.1314 39.9971 15.2778 39.5827 15.2778Z" fill="black"/>
<path d="M39.5827 31.9444H10.416C10.0016 31.9444 9.60418 31.7981 9.31116 31.5376C9.01814 31.2772 8.85352 30.9238 8.85352 30.5555C8.85352 30.1872 9.01814 29.8338 9.31116 29.5735C9.60418 29.3129 10.0016 29.1666 10.416 29.1666H39.5827C39.9971 29.1666 40.3946 29.3129 40.6875 29.5735C40.9806 29.8338 41.1452 30.1872 41.1452 30.5555C41.1452 30.9238 40.9806 31.2772 40.6875 31.5376C40.3946 31.7981 39.9971 31.9444 39.5827 31.9444Z" fill="black"/>
</svg>
